<svg xmlns="http://www.w3.org/2000/svg" viewBox="0 0 28 28" fill="none"> <path d="M0 6C0 2.6863 2.6863 0 6 0H22C25.31375 0 28 2.6863 28 6V22C28 25.31375 25.31375 28 22 28H6C2.6863 28 0 25.31375 0 22V6Z" fill="#F3F5F7"></path> <path fill-rule="evenodd" clip-rule="evenodd" d="M13.580475 0C13.50995 5.675425 13.12255 8.865275 10.993925 10.9939C8.865275 13.122525 5.675425 13.50995 0 13.58045V14.419525C5.675425 14.49005 8.8653 14.87745 10.993925 17.0061C13.12255 19.134725 13.50995 22.324575 13.580475 28H14.419525C14.49005 22.324575 14.877475 19.134725 17.0061 17.006075C19.134725 14.87745 22.324575 14.49005 28 14.419525V13.58045C22.324575 13.509925 19.134725 13.122525 17.006075 10.9939C14.87745 8.865275 14.49005 5.6754 14.419525 0H13.580475Z" fill="#171B20"></path> </svg>