<?xml version="1.0" encoding="UTF-8"?> <svg xmlns="http://www.w3.org/2000/svg" id="_Слой_1" data-name="Слой_1" version="1.1" viewBox="0 0 226 40"><defs><style> .st0 { fill: #17bf50; } .st1 { fill: #fff; } </style></defs><rect class="st1" y="6.1" width="27.7" height="27.7" rx="6.9" ry="6.9"></rect><path class="st1" d="M33.8,27v-15.4h3.3v1.7c1-1.3,2.6-1.9,4.8-1.9s4.2.9,5.1,2.6c1-1.7,2.8-2.6,5.4-2.6s3.6.6,4.6,1.7c1,1.1,1.5,2.8,1.5,5.2v8.7h-3.4v-8.7c0-1.3-.3-2.2-.8-2.8-.6-.6-1.4-.9-2.6-.9s-2.3.4-2.9,1.1c-.6.7-.9,2-.9,3.7v7.7h-3.4v-8.7c0-1.3-.3-2.2-.8-2.8-.6-.6-1.4-.9-2.6-.9s-2.3.4-3,1.1c-.6.7-.9,2-.9,3.7v7.7h-3.3ZM62,34.4V11.6h3.3v1.9c1.1-1.4,2.9-2.2,5.5-2.2s4.2.6,5.3,1.9c1.1,1.3,1.7,3.3,1.7,6.1s-.6,4.8-1.7,6.1c-1.1,1.3-2.8,1.9-5.3,1.9s-4.4-.7-5.5-2.2v9.3h-3.3ZM66.5,23c.7.7,1.9,1.1,3.4,1.1s2.7-.4,3.4-1.1c.7-.8,1.1-2,1.1-3.7s-.4-2.9-1.1-3.6c-.7-.8-1.9-1.2-3.4-1.2s-2.7.4-3.4,1.2c-.7.7-1.1,2-1.1,3.6s.4,2.9,1.1,3.7ZM79.9,22.2h3.3c.4,1.4,1.8,2.1,4.2,2.1s3.5-.5,3.5-1.6-1.4-1.6-4.2-2c-2.4-.3-4.1-.8-5.1-1.5-1-.7-1.5-1.8-1.5-3.3s.5-2.7,1.6-3.5c1.1-.7,2.7-1.1,5-1.1s4,.4,5.2,1.2c1.2.8,1.9,2.1,2.1,3.8h-3.3c-.2-.7-.7-1.3-1.3-1.6-.6-.3-1.5-.5-2.7-.5-2.2,0-3.3.5-3.3,1.5s.3.9.9,1.2c.7.3,1.7.5,3,.7,2.6.4,4.4.9,5.3,1.6,1,.7,1.5,1.7,1.5,3.2s-.6,2.8-1.7,3.6c-1.1.8-2.8,1.2-5.2,1.2s-4.1-.4-5.3-1.2c-1.2-.8-1.9-2.1-2.2-3.8ZM101.4,11.6h4.5v3.1h-4.5v6.6c0,.9.2,1.5.6,1.9s1.1.6,2,.6h2v3.1h-2.1c-2.1,0-3.6-.4-4.5-1.2-.9-.8-1.4-2.2-1.4-4v-7h-2.4v-3.1h2.4v-3.4h3.3v3.4ZM113.7,27.3c-2,0-3.5-.4-4.4-1.1-.9-.8-1.4-2-1.4-3.6s.5-2.9,1.5-3.6c1-.7,2.7-1.1,5.1-1.1h4.9c0-1.2-.4-2.1-1-2.7-.6-.6-1.6-.9-3-.9s-2,.2-2.6.6c-.6.4-1,.9-1.2,1.7h-3.3c.3-1.8,1-3.2,2.1-4,1.1-.8,2.9-1.3,5.1-1.3s4.4.5,5.6,1.6c1.2,1,1.7,2.7,1.7,5v9h-3.4v-1.7c-1.1,1.3-3,2-5.7,2ZM111.2,22.4c0,1.3,1.1,1.9,3.3,1.9s2.7-.3,3.4-.8c.8-.6,1.3-1.4,1.4-2.6v-.5h-4c-2.8,0-4.1.7-4.1,2.1ZM130.8,11.6h4.5v3.1h-4.5v6.6c0,.9.2,1.5.6,1.9.4.4,1.1.6,2,.6h2v3.1h-2.1c-2.1,0-3.6-.4-4.5-1.2-.9-.8-1.4-2.2-1.4-4v-7h-2.4v-3.1h2.4v-3.4h3.3v3.4ZM137.1,22.2h3.3c.4,1.4,1.8,2.1,4.2,2.1s3.5-.5,3.5-1.6-1.4-1.6-4.2-2c-2.4-.3-4.1-.8-5.1-1.5-1-.7-1.5-1.8-1.5-3.3s.5-2.7,1.6-3.5c1.1-.7,2.7-1.1,5-1.1s4,.4,5.2,1.2c1.2.8,1.9,2.1,2.1,3.8h-3.3c-.2-.7-.7-1.3-1.3-1.6-.6-.3-1.5-.5-2.7-.5-2.2,0-3.3.5-3.3,1.5s.3.9.9,1.2c.7.3,1.7.5,3,.7,2.6.4,4.4.9,5.3,1.6,1,.7,1.5,1.7,1.5,3.2s-.6,2.8-1.7,3.6c-1.1.8-2.8,1.2-5.2,1.2s-4.1-.4-5.3-1.2c-1.2-.8-1.9-2.1-2.2-3.8Z"></path><path class="st0" d="M153.8,24.9c0-.8.2-1.4.5-1.8.4-.4,1-.6,1.8-.6s1.4.2,1.8.6c.4.4.6,1,.6,1.8s-.2,1.5-.6,1.8c-.4.4-1,.6-1.8.6s-1.5-.2-1.8-.6c-.4-.4-.5-1-.5-1.8ZM168.6,27.3c-2.7,0-4.6-.6-5.9-1.9-1.2-1.3-1.8-3.3-1.8-6.1s.6-4.8,1.8-6.1c1.2-1.3,3.2-1.9,5.9-1.9s4.2.5,5.4,1.4c1.2,1,1.9,2.5,2.2,4.6h-3.3c-.2-1-.7-1.8-1.3-2.2s-1.6-.7-2.9-.7-2.6.4-3.3,1.2c-.7.7-1,2-1,3.6s.3,2.9,1,3.7c.7.7,1.8,1.1,3.3,1.1s2.2-.2,2.8-.7c.7-.5,1.1-1.2,1.4-2.2h3.3c-.3,2.1-1,3.6-2.2,4.6-1.2,1-3,1.4-5.4,1.4ZM180.2,13.3c1.3-1.3,3.3-1.9,6-1.9s4.8.6,6,1.9c1.3,1.3,1.9,3.3,1.9,6.1s-.6,4.8-1.9,6.1c-1.3,1.3-3.3,1.9-6,1.9s-4.8-.6-6-1.9c-1.2-1.3-1.9-3.3-1.9-6.1s.6-4.8,1.9-6.1ZM182.8,15.7c-.7.7-1.1,2-1.1,3.6s.4,2.9,1.1,3.7c.7.7,1.9,1.1,3.5,1.1s2.7-.4,3.5-1.1c.7-.8,1.1-2,1.1-3.7s-.4-2.9-1.1-3.6c-.7-.8-1.9-1.2-3.5-1.2s-2.7.4-3.5,1.2ZM197,11.6h3.3v1.8c1.1-1.4,2.9-2.1,5.3-2.1s3.8.6,4.8,1.7c1,1.1,1.5,2.8,1.5,5.2v8.7h-3.3v-8.7c0-1.3-.3-2.2-1-2.8-.6-.6-1.6-.9-3-.9s-2.6.4-3.3,1.1c-.7.7-1,2-1,3.7v7.7h-3.3v-15.4ZM216.8,14.8h-2.6v-3.1h2.6v-.5c0-2.2.5-3.8,1.5-4.8,1-1,2.6-1.5,4.7-1.5h1.9v3.1h-1.7c-1,0-1.8.3-2.3.8-.5.5-.7,1.3-.7,2.5v.5h4.5v3.1h-4.5v12.2h-3.4v-12.2Z"></path><path class="st0" d="M20.4,22.5l-11.5,6.4c-.5.3-1,0-1-.6v-12.7c0-.5.6-.9,1-.6.2.1.4.4.4.6v7.3c0,.5.6.9,1,.6l6.7-3.7c.2-.1.5-.1.7,0l2.7,1.5c.5.3.5,1,0,1.3Z"></path><path class="st0" d="M19.5,15.4c.5.3.5,1,0,1.2l-3.6,2.2-4.3,2.6c-.5.3-1.1,0-1.1-.6v-9.4c0-.6.6-.9,1.1-.6l7.9,4.7Z"></path></svg> 