<svg xmlns="http://www.w3.org/2000/svg" viewBox="0 0 28 28" fill="none"> <path d="M0 6C0 2.6863 2.6863 0 6 0H22C25.31375 0 28 2.6863 28 6V22C28 25.31375 25.31375 28 22 28H6C2.6863 28 0 25.31375 0 22V6Z" fill="#F3F5F7"></path> <path d="M14.903325 8.77075C13.2912 9.445 10.069225 10.84055 5.2374 12.9574C4.4528 13.27115 4.041775 13.578075 4.00435 13.8782C3.941125 14.385425 4.5728 14.58515 5.43295 14.857125C5.54995 14.894125 5.6712 14.93245 5.795475 14.973075C6.64175 15.2497 7.780125 15.573325 8.371925 15.586175C8.90875 15.597825 9.5079 15.3753 10.169375 14.91855C14.6839 11.854175 17.014325 10.3053 17.160625 10.2719C17.26385 10.24835 17.4069 10.218725 17.5038 10.30535C17.600725 10.391975 17.5912 10.556 17.580925 10.6C17.51835 10.86825 15.03885 13.186225 13.7557 14.3858L13.755675 14.385825C13.35565 14.759775 13.0719 15.02505 13.0139 15.085625C12.883975 15.2213 12.751575 15.34965 12.624325 15.473025L12.624275 15.473075C11.83805 16.2352 11.248475 16.806725 12.6569 17.74C13.33375 18.1885 13.87535 18.559375 14.41565 18.929375L14.415775 18.929475C15.005825 19.333525 15.59435 19.736525 16.3558 20.23845C16.5498 20.366325 16.735075 20.499125 16.91555 20.6285L16.915575 20.628525C17.6023 21.120825 18.21925 21.5631 18.98145 21.492575C19.42435 21.451575 19.88185 21.032825 20.114175 19.78385C20.663275 16.83215 21.742575 10.43675 21.992 7.80135C22.01385 7.57045 21.98635 7.27495 21.964275 7.14525C21.9422 7.015525 21.896075 6.8307 21.7284 6.6939C21.5298 6.53185 21.223225 6.4977 21.086125 6.500125C20.462725 6.51115 19.506275 6.845575 14.903325 8.77075Z" fill="#171B20"></path> </svg>