<svg xmlns="http://www.w3.org/2000/svg" viewBox="0 0 28 28" fill="none"> <path d="M0 6C0 2.6863 2.6863 0 6 0H22C25.31375 0 28 2.6863 28 6V22C28 25.31375 25.31375 28 22 28H6C2.6863 28 0 25.31375 0 22V6Z" fill="#F3F5F7"></path> <path d="M14.8485 20C8.35695 20 4.6543 15.4955 4.5 8H7.751725C7.858525 13.5015 10.255725 15.831825 12.154525 16.3123V8H15.216475V12.7447C17.09155 12.5405 19.0613 10.378375 19.725925 8H22.787825C22.277525 10.93095 20.14135 13.093075 18.622325 13.98195C20.14135 14.702675 22.574325 16.588575 23.5 20H20.1295C19.405575 17.7177 17.60185 15.95195 15.216475 15.711675V20H14.8485Z" fill="#171B20"></path> </svg>