  <svg xmlns="http://www.w3.org/2000/svg" viewBox="0 0 28 28" fill="none">
    <path
      d="M0 6C0 2.6863 2.6863 0 6 0H22C25.31375 0 28 2.6863 28 6V22C28 25.31375 25.31375 28 22 28H6C2.6863 28 0 25.31375 0 22V6Z"
      fill="#F3F5F7"
    ></path>
    <path
      d="M16.8854 13.70025L12.8426 11.819225C12.4898 11.6559 12.2 11.838975 12.2 12.22845V15.77155C12.2 16.161025 12.4898 16.3441 12.8426 16.180775L16.8836 14.29975C17.2382 14.134625 17.2382 13.865375 16.8854 13.70025ZM14 21C5.1548 21 5 20.204875 5 14C5 7.795125 5.1548 7 14 7C22.8452 7 23 7.795125 23 14C23 20.204875 22.8452 21 14 21Z"
      fill="#171B20"
    ></path>
  </svg>
